<svg width="43" height="47" viewBox="0 0 43 47" fill="none" xmlns="http://www.w3.org/2000/svg">
<path d="M23.4969 4.38217C25.0591 6.68299 21.3691 8.73864 19.535 8.70469C16.8023 8.65217 13.8885 7.68908 11.3002 6.34374C13.1423 8.37692 14.9166 10.5672 16.5409 12.859C16.6118 12.9119 16.6828 12.9649 16.7538 13.0178C16.9241 12.981 17.1047 12.9765 17.307 13.055C21.2814 14.6795 26.2114 13.3104 29.9875 15.6826C31.7004 16.7639 33.7881 20.8533 30.8079 21.9254C28.0036 22.938 24.6326 20.5974 22.3461 19.2408C21.3467 18.6479 20.3879 18.011 19.4318 17.3627C22.8278 23.2435 25.0035 29.6204 24.76 35.9843C24.6361 39.2495 22.7314 41.7639 19.8669 38.7376C18.4708 37.2601 18.7281 33.9134 18.7485 32.1183C18.7901 28.4507 19.6105 24.133 18.5176 20.5815C18.4321 20.3158 18.4598 20.0773 18.5568 19.8733C17.975 18.7648 17.3284 17.6766 16.6537 16.6056C17.196 19.068 17.3554 21.6299 17.1304 24.0993C16.8509 27.1417 15.0705 31.3723 11.6462 31.955C8.88388 32.4216 9.80256 27.6969 10.0461 26.4399C10.9527 21.79 12.2168 17.2201 12.4863 12.4591C12.5034 12.1403 12.6356 11.9149 12.8305 11.7763C12.7724 11.571 12.7638 11.3836 12.8343 11.2151C11.6426 9.70895 10.3963 8.25544 9.11257 6.88263C9.39181 10.1131 8.81527 13.5685 7.62573 16.4162C7.09605 17.6942 3.5424 21.9115 1.99105 19.392C0.715811 17.3395 2.69988 14.0249 3.5874 12.1811C4.62303 9.99603 5.82008 7.88566 7.01441 5.78659C6.94066 5.39812 6.85288 5.01824 6.75536 4.65396C6.5526 4.52751 6.4395 4.32693 6.40243 4.10872C5.06998 2.81391 3.73677 1.59665 2.42853 0.499012C1.45836 -0.314098 2.64574 -1.8886 3.62292 -1.07979C5.03918 0.115561 6.48742 1.42624 7.92516 2.83006C8.00976 2.82647 8.09866 2.82988 8.18756 2.83329C8.49047 2.61903 8.88776 2.55899 9.27496 2.81346C11.3071 2.7455 13.5045 2.53785 15.5202 2.53772C17.6981 2.53469 22.029 2.23559 23.4969 4.38217ZM17.7057 6.51911C19.095 6.8349 20.5434 6.97955 21.5609 5.83664C22.2345 5.07756 20.7213 4.95324 20.1505 4.84004C17.5409 4.32675 14.9126 4.4608 12.2789 4.61746C14.0195 5.46017 15.8841 6.11141 17.7057 6.51911ZM27.4222 19.6709C28.0039 19.9123 29.9859 20.7711 30.2341 19.7424C30.785 17.4589 27.6038 16.7365 26.0508 16.4053C24.2717 16.0198 22.3811 15.9722 20.526 15.7777C22.7108 17.2833 24.9805 18.6598 27.4222 19.6709ZM20.7173 31.2219C20.6875 32.5602 20.7208 33.8599 20.8263 35.1829C20.8454 35.4506 22.308 39.1806 22.698 37.2172C23.1056 35.1563 22.6459 32.7975 22.3384 30.7502C22.0754 28.9648 21.5979 27.1758 20.9808 25.395C20.9421 27.3651 20.7611 29.3548 20.7173 31.2219ZM11.6329 29.3326C11.5415 30.9013 14.0216 27.6879 14.2964 27.144C15.0529 25.6693 15.1923 23.9267 15.2677 22.3004C15.3781 19.9589 14.9937 17.4865 14.2327 15.1868C13.9804 17.7693 13.5355 20.4311 12.9222 22.8492C12.377 24.9846 11.7586 27.1263 11.6329 29.3326ZM3.97243 16.2621C3.7682 16.8111 3.70016 18.1342 3.2931 18.0364C4.58914 18.3418 5.66685 15.9576 6.00711 15.1423C6.70711 13.4806 7.11191 11.4311 7.20364 9.39008C5.97931 11.6135 4.83998 13.8812 3.97243 16.2621Z" fill="#CBA258"/>
<path d="M42.999 36.8656L40.9427 37.4225C38.8448 37.9938 37.2516 39.7702 36.8579 41.9787L36.4967 44L36.1355 41.9739C35.7418 39.7654 34.1486 37.989 32.0553 37.4177L29.999 36.8608L32.0553 36.3134C34.1533 35.7565 35.7511 33.9993 36.1586 31.7956L36.4921 30L36.8255 31.7956C37.2331 33.9993 38.8355 35.7613 40.9335 36.3182L42.999 36.8656Z" fill="#CBA258"/>
<path d="M9.99902 42.9232L8.89179 43.2414C7.76212 43.5679 6.90426 44.583 6.69229 45.845L6.49778 47L6.30326 45.8423C6.09129 44.5802 5.23344 43.5652 4.10626 43.2387L2.99902 42.9204L4.10626 42.6077C5.23593 42.2894 6.09628 41.2853 6.31573 40.0261L6.49528 39L6.67483 40.0261C6.89428 41.2853 7.75713 42.2922 8.8868 42.6104L9.99902 42.9232Z" fill="#CBA258"/>
</svg>
