<svg width="37" height="52" viewBox="0 0 37 52" fill="none" xmlns="http://www.w3.org/2000/svg">
<g opacity="0.5">
<path d="M41.3826 25.5535L36.3086 26.8754C31.1288 28.2255 27.2051 32.4376 26.2312 37.6833L25.342 42.479L24.4529 37.6763C23.479 32.4306 19.5553 28.2255 14.3826 26.8684L9.30859 25.5464L14.3896 24.2526C19.5624 22.9306 23.5072 18.7608 24.5164 13.5362L25.342 9.2749L26.1677 13.5291C27.1769 18.7537 31.1217 22.9306 36.3015 24.2526L41.3826 25.5535Z" fill="#CBA258"/>
<path d="M51.4173 41.5508L48.284 42.3665C45.0872 43.2033 42.6596 45.805 42.0598 49.0396L41.5093 52L40.9589 49.0326C40.3591 45.798 37.9315 43.1962 34.7417 42.3595L31.6084 41.5438L34.7417 40.7421C37.9385 39.9265 40.3732 37.3528 40.9942 34.1252L41.5023 31.4954L42.0104 34.1252C42.6314 37.3528 45.0731 39.9335 48.2699 40.7492L51.4173 41.5508Z" fill="#CBA258"/>
<path d="M19.8019 10.0484L16.6686 10.8641C13.4718 11.7009 11.0442 14.3026 10.4443 17.5373L9.89388 20.4976L9.34344 17.5302C8.7436 14.2956 6.316 11.6938 3.12624 10.8571L0 10.0484L3.14036 9.24679C6.33717 8.4311 8.77182 5.85747 9.39284 2.62989L9.90094 0L10.409 2.62989C11.0301 5.85747 13.4718 8.43813 16.6686 9.25382L19.8019 10.0484Z" fill="#CBA258"/>
<path d="M9.90039 35.5175C9.90039 34.0971 11.0577 32.9438 12.4832 32.9438C13.9088 32.9438 15.0661 34.0971 15.0661 35.5175C15.0661 36.9379 13.9088 38.0911 12.4832 38.0911C11.0577 38.0841 9.90039 36.9379 9.90039 35.5175Z" fill="#CBA258"/>
<path d="M4.88379 40.5804C4.88379 39.8069 5.51186 39.1741 6.29519 39.1741C7.07851 39.1741 7.70658 39.8069 7.70658 40.5804C7.70658 41.3539 7.07145 41.9868 6.29519 41.9868C5.51892 41.9868 4.88379 41.361 4.88379 40.5804Z" fill="#CBA258"/>
<path d="M16.4785 45.137C16.4785 44.5463 16.9584 44.0752 17.5441 44.0752C18.1369 44.0752 18.6097 44.5534 18.6097 45.137C18.6097 45.7277 18.1298 46.1988 17.5441 46.1988C16.9513 46.1988 16.4785 45.7277 16.4785 45.137Z" fill="#CBA258"/>
</g>
</svg>
